<svg xmlns="http://www.w3.org/2000/svg" viewBox="0 0 1600 1000"><defs><linearGradient id="sky" x1="0" y1="0" x2="0" y2="1"><stop offset="0" stop-color="#CFDCE2"/><stop offset="0.5" stop-color="#E2E8E0"/><stop offset="1" stop-color="#D8E0D4"/></linearGradient></defs><rect width="1600" height="1000" fill="url(#sky)"/><circle cx="800" cy="180" r="100" fill="#FDFDFB" opacity="0.5"/><path d="M0,1000 L0,489 Q160,489 320,473 Q480,473 640,578 Q800,578 960,451 Q1120,451 1280,516 Q1440,516 1600,530 L1600,1000 Z" fill="#A9B8A6"/><path d="M0,1000 L0,579 Q133,579 267,629 Q400,629 533,645 Q667,645 800,542 Q933,542 1067,586 Q1200,586 1333,672 Q1467,672 1600,620 L1600,1000 Z" fill="#8DA28C"/><path d="M0,1000 L0,721 Q200,721 400,764 Q600,764 800,678 Q1000,678 1200,696 Q1400,696 1600,666 L1600,1000 Z" fill="#748D77"/><path d="M0,1000 L0,824 Q160,824 320,788 Q480,788 640,787 Q800,787 960,775 Q1120,775 1280,788 Q1440,788 1600,826 L1600,1000 Z" fill="#5C7663"/><ellipse cx="800" cy="820" rx="992" ry="70" fill="#E2E8E0" opacity="0.35"/><path d="M0,1000 L0,928 Q160,928 320,923 Q480,923 640,886 Q800,886 960,945 Q1120,945 1280,937 Q1440,937 1600,896 L1600,1000 Z" fill="#475F50"/><filter id="g77"><feTurbulence type="fractalNoise" baseFrequency="0.9" numOctaves="2" seed="77" stitchTiles="stitch"/><feColorMatrix type="saturate" values="0"/><feComponentTransfer><feFuncA type="linear" slope="0.05"/></feComponentTransfer></filter><rect width="1600" height="1000" filter="url(#g77)"/><text x="1572" y="976" text-anchor="end" font-family="sans-serif" font-size="22" letter-spacing="2" fill="#FDFDFB" opacity="0.45">PHOTO: THE VALLEY</text></svg>